<svg viewBox="0 0 128 128" xmlns="http://www.w3.org/2000/svg"><g fill="#3EBBC4"><g opacity=".3"><path d="M11.5 85.5V54.1c0-4.7 3.8-8.5 8.5-8.5h8.3v-4H20c-.3 0-.7 0-1 .1 3.6-3.7 8.5-5.6 14.5-5.6v-4c-9.3 0-16.8 4.2-21.1 11.8l-.3.6c-2.8 2.3-4.6 5.8-4.6 9.6v1.2c-2.3.2-4.2 2.2-4.2 4.6v5.8c0 2.4 1.8 4.4 4.2 4.6v15.3c0 5.5 1.9 10.6 5.2 14.6l-5.1 2.5c-3.4 1.6-5.6 5.1-5.6 8.9V126h24.2v-4h-10v-1.9h-4v1.9H6v-10.4c0-2.2 1.3-4.3 3.3-5.3l6.4-3.1c3 2.5 6.6 4.3 10.6 5l.7-3.9c-9-1.8-15.5-9.6-15.5-18.8zM7.3 65.6v-5.8c0-.2.1-.3.2-.4v6.7c-.1-.2-.2-.3-.2-.5z"/><path d="M20.9 64.7h16.3v-4H16.9v14.2h25.3v-4H20.9zm99.9-10C120 40.6 109.2 28.9 95 27.2l-.5 4c11.9 1.4 21.1 11 22.3 22.8l-.9-.2c-2.3-12-9.7-19.7-20.4-21.2l-.6 4c9.5 1.4 15.7 8.4 17.3 19.8l-1 5.5h-.2c-6.9 1.1-12.9-1.3-18.3-4-1-.5-2.2-.1-2.7.9s-.1 2.2.9 2.7c4.7 2.4 10.3 4.7 16.7 4.7.9 0 1.9-.1 2.8-.2L108 79.5c-6.5 12.9-13.8 14.4-16.8 14.4-2.9 0-8.6-1.3-14.3-10L73.7 86c6.7 10.3 13.9 11.9 17.7 11.9 2.2 0 4.2-.5 6-1.2.4.9 1.1 1.6 1.9 2l15.6 7.5c2 1 3.3 3 3.3 5.3v10.3h-6v-1.7h-4v1.7h-6.9v4h21v-14.3c0-3.8-2.2-7.2-5.6-8.9L101.1 95v-.4c5.2-3.7 8.9-9.7 11-14.1l3.8.7c.4.1.8.1 1.1.1 3.2 0 5.9-2.3 6.5-5.4l2.4-13.5c.6-3.6-1.6-6.9-5.1-7.7zm1.2 6.9l-2.4 13.5c-.2 1.4-1.6 2.3-3 2.1l-3.8-.7 3.3-18.6 3.8.7c1.4.3 2.3 1.6 2.1 3z"/></g><path d="M96.2 97.5L81 90.1l-5-2.4v-1.6c5.6-3.8 11.8-11.2 17-25.1 2.7-.1 5-1.3 6.4-3.3 1.7-2.4 2-5.6.8-8.2-.4-.9-1-1.6-1.6-2.2h2.4v-9.6l-4.3-1.2v-.6c0-12.5-7.1-23.8-18.3-29.3-.6-2.2-2.5-3.8-4.9-3.8H66V1h-4v1.7h-7.5c-2.4 0-4.3 1.6-4.9 3.8C38.4 12 31.3 23.4 31.3 35.8v.6L27 37.7v9.6h2.4c-.7.6-1.2 1.4-1.6 2.2-1.2 2.6-.9 5.8.8 8.2 1.5 2.1 3.8 3.2 6.4 3.3 5.2 13.9 11.5 21.2 17 25.1v1.6l-3.7 1.8-16.5 8c-4.1 2-6.8 6.2-6.8 10.8v17.5h78v-17.5c0-4.6-2.7-8.8-6.8-10.8zM72 89.2c0 .3-.1.7-.1 1.1 0 .2-.1.5-.1.7-.1.2-.1.4-.2.6 0 0 0 .1-.1.1-.1.2-.1.3-.2.5 0 .1-.1.2-.2.3 0 .1-.1.2-.2.3l-.3.6c-.9 1.3-2.1 2.3-3.5 2.9H67c-.2.1-.4.2-.6.2h-.1c-.2.1-.4.1-.6.1h-.2c-.2 0-.4.1-.6.1h-1c-4.4 0-8-3.6-8-8v-.6c3.3 1.5 6.1 1.8 8 1.8 1.9 0 4.7-.3 8-1.8v.9c.1.1.1.1.1.2zm24.2-33.8c-.4.5-.9 1.1-1.8 1.4.5-2.2.9-4.6 1.1-6.8.5.3.9.7 1.1 1.3.6 1.2.5 2.9-.4 4.1zM31 40.7l4.3-1.2v-3.6c0-10.2 5.5-19.6 14.1-24.7v12h4V7.8c0-.6.5-1.1 1.1-1.1H62v23h4v-23h7.5c.6 0 1.1.5 1.1 1.1v15.3h4v-12c8.7 5.1 14.1 14.5 14.1 24.7v3.6l4.3 1.2v2.6H31v-2.5zm.8 14.7c-.9-1.2-1-2.9-.4-4.1.3-.5.6-1 1.1-1.3.2 2.5.7 4.7 1.2 6.8-.9-.3-1.5-.9-1.9-1.4zm6.5 3c-.9-3.3-1.8-6.8-2-11.1h55.4c-.1 3.2-.8 8-1.9 11-9 25.1-21 27.8-25.8 27.8-4.7.1-16.7-2.6-25.7-27.7zM99 121.8h-9V119h-4v2.8H42V119h-4v2.8h-9v-13.5c0-3.1 1.8-5.9 4.5-7.2L52.4 92c0 .1.1.2.1.3 0 .1.1.3.1.4.1.2.2.5.3.7 0 .1.1.2.1.3.1.3.3.6.4.8 0 0 0 .1.1.1l.6.9c.1.1.1.2.2.3.1.2.3.4.5.6l.3.3c.1.2.3.3.5.5l.3.3.5.5.3.3c.2.2.4.3.6.5.1.1.2.1.2.2l.9.6c.1 0 .1.1.2.1.3.1.5.3.8.4.1.1.2.1.4.1.2.1.4.2.7.2.1 0 .3.1.4.1.2.1.5.1.7.2.1 0 .3.1.4.1.2 0 .5.1.8.1h.4c.4 0 .8.1 1.1.1h1.1c.2 0 .4 0 .5-.1.2 0 .3 0 .5-.1.2 0 .5-.1.7-.2.1 0 .2 0 .3-.1.3-.1.5-.2.8-.2h.2c.3-.1.6-.2.8-.3h.1c.3-.1.6-.3.8-.4.3-.2.5-.3.8-.5.3-.2.5-.3.7-.5 0 0 .1 0 .1-.1.2-.2.4-.4.6-.5l.1-.1.5-.5c.1-.1.2-.2.2-.3.1-.1.2-.3.4-.4.1-.2.3-.3.4-.5.1-.1.1-.2.2-.2.8-1.1 1.4-2.4 1.7-3.8l18.8 9.1c2.8 1.3 4.5 4.2 4.5 7.2v13.3z"/><path d="M42.5 36h43v4h-43z"/></g></svg>