<svg xmlns="http://www.w3.org/2000/svg" viewBox="0 0 512.001 512.001"><path d="M503.78 92.792l-70.003 70.003c-6.474 6.482-15.416 10.483-25.29 10.483a35.69 35.69 0 0 1-25.323-10.483L366.29 145.93c-6.477-6.482-10.468-15.429-10.468-25.313s3.991-18.826 10.468-25.303l70.003-70.003c-42.798-16.768-93.34-7.882-127.923 26.703-46.592 46.584-46.592 122.122 0 168.704 46.595 46.595 122.122 46.595 168.704 0C511.67 186.137 520.55 135.6 503.78 92.792zM55.567 376.002c-12.841 11.914-21.005 28.833-21.363 47.731-.358 18.898 7.16 36.106 19.551 48.494l3.121 3.118c12.38 12.385 29.588 19.909 48.486 19.551 18.908-.353 35.809-8.517 47.729-21.368l67.354-72.643-92.234-92.237-72.644 67.354zm69.471 70.229c-11.633 11.656-30.52 11.656-42.173 0-11.643-11.643-11.643-30.531 0-42.173 11.653-11.656 30.541-11.656 42.173 0 11.643 11.642 11.643 30.53 0 42.173zm128.576-247.442a16.619 16.619 0 0 0-11.807-4.884A16.624 16.624 0 0 0 230 198.789L152.397 276.4a16.622 16.622 0 0 0-4.89 11.807c0 4.616 1.861 8.791 4.89 11.807l173.76 173.773c27.973 27.958 73.277 27.948 101.227 0 27.963-27.955 27.963-73.27 0-101.227l-173.77-173.771zm107.134 247.155c-4.636 4.644-12.237 4.644-16.873 0L192.041 294.111c-4.644-4.636-4.644-12.227 0-16.873 4.636-4.636 12.227-4.636 16.87 0l151.836 151.839c4.637 4.641 4.637 12.231.001 16.867zm38.807-38.797c-4.636 4.641-12.237 4.641-16.873 0L230.848 255.306c-4.654-4.641-4.654-12.232 0-16.87 4.626-4.641 12.227-4.641 16.86.005l151.846 151.834c4.637 4.641 4.637 12.231.001 16.872zM43.709 138.742a9.524 9.524 0 0 0 4.797 1.103l18.98-.66 99.254 99.249 25.3-25.308-99.24-99.242.655-18.985a9.59 9.59 0 0 0-1.106-4.795 9.506 9.506 0 0 0-3.366-3.612l-63.67-40.084L0 71.705l40.108 63.685a9.45 9.45 0 0 0 3.601 3.352z"/></svg>